# xmcd
#
# Track frame offsets: 
#        150
#        11436
#        24808
#        40055
#        57601
#        72386
#        83902
#        98660
#        113801
#        126341
#        138931
#        153909
#        174917
#        187733
#        201146
#        222746
#        239280
#        254461
#        278297
#        297008
#
# Disc length: 4126 seconds
#
# Revision: 1
# Processed by: cddbd v1.5.2PL0 Copyright (c) Steve Scherf et al.
# Submitted via: ExactAudioCopy v0.95a5
#
DISCID=0f101c14
DTITLE=Louis Armstrong - 20 Best of Louis Armstrong
DYEAR=2004
DGENRE=Jazz
TTITLE0=Hello Dolly
TTITLE1=A Kiss To Build A Dream On
TTITLE2=Mack The Knife
TTITLE3=Cabaret
TTITLE4=Blueberry Hill
TTITLE5=Dipper Mouth Blues
TTITLE6=Stardust
TTITLE7=Please Don't Talk About Me When I'm Gone
TTITLE8=C'est Si Bon
TTITLE9=Stompin' At The Savoy
TTITLE10=New Orleans Stomp
TTITLE11=I Used To Love You
TTITLE12=That's My Desire
TTITLE13=Snake Rag
TTITLE14=Tea For Two
TTITLE15=I Love The Guy
TTITLE16=Bye and Bye
TTITLE17=I Want A Big Butter And Egg Man
TTITLE18=Someday You'll Be Sorry
TTITLE19=Jelly Roll Blues
EXTD=
EXTT0=
EXTT1=
EXTT2=
EXTT3=
EXTT4=
EXTT5=
EXTT6=
EXTT7=
EXTT8=
EXTT9=
EXTT10=
EXTT11=
EXTT12=
EXTT13=
EXTT14=
EXTT15=
EXTT16=
EXTT17=
EXTT18=
EXTT19=
PLAYORDER=
